<svg width="1200pt" height="450pt" version="1.0" viewBox="0 0 1200 400" xmlns="http://www.w3.org/2000/svg">
<g transform="matrix(.1 0 0 -.1 -223.13 494.06)" fill="#fff">
<path d="m8370 3640v-100h210v200h-210z"/>
<path d="m7330 3025v-705h890v170h-700v1240h-190z"/>
<path d="m8910 3530v-150h-120v-160h120v-307c0-338 9-410 56-490 28-49 95-97 159-115 54-14 186-14 268 2l67 12v84c0 46-4 84-9 84s-38-7-72-16c-80-21-169-15-207 13-15 11-36 35-47 54-19 32-20 55-23 357l-3 322h361v160h-360v300h-190z"/>
<path d="m6499 3397c-100-19-187-67-257-141-100-108-143-230-144-411 0-123 14-200 55-285 122-258 478-343 835-199l52 21v99c0 61-4 99-10 99s-29-12-51-26-75-39-117-56c-66-27-93-32-187-36-95-3-118-1-166 17-134 51-200 140-223 299l-6 42h780v64c0 332-137 503-418 520-42 3-107 0-143-7zm207-162c27-8 64-28 82-44 43-40 82-125 82-178v-43h-290c-329 0-305-7-273 86 23 68 113 157 179 178 64 19 158 20 220 1z"/>
<path d="m10109 3400c-61-11-128-41-200-90l-59-40v110h-190v-1060h190v780l43 31c178 131 371 128 429-6 9-22 13-129 16-417l3-388h190l-1 391-2 391 46 33c87 62 163 90 246 90 96 0 135-21 170-90l25-50 3-382 4-383h188v328c-1 370-8 481-41 566-84 224-381 259-626 75l-62-47-25 38c-64 97-205 146-347 120z"/>
<path d="m12953 3385c-80-22-144-58-190-108-60-65-76-107-77-202 0-67 4-88 25-130 48-95 129-136 360-185 173-35 219-59 238-119 12-39 12-48-5-89-16-37-29-51-69-71-44-23-61-26-160-26-99 1-118 4-195 33-47 18-108 48-137 67s-55 35-58 35-5-47-5-105c0-122-8-113 140-160 152-47 339-45 476 6 72 27 155 104 185 171 34 78 32 175-4 250-48 98-117 135-331 179-181 38-245 68-265 125-18 52-9 90 33 129s95 55 184 55c98 0 162-17 269-71 51-25 95-44 98-41s5 47 5 98v93l-31 17c-17 9-74 27-126 40-111 28-274 32-360 9z"/>
<path d="m8380 2850v-530h190v1060h-190z"/>
<path d="m11520 3037c0-188 5-381 10-427 26-211 143-320 344-320 107 0 190 25 279 85 37 25 70 45 72 45 3 0 5-22 5-50v-50h180v1060h-180v-788l-54-36c-110-73-218-103-308-86-63 12-89 29-116 72-35 58-42 136-42 495v343h-190z"/>
</g>
<g transform="matrix(.63618 0 0 .70027 31.505 32.371)" visibility="inherit">
<g visibility="inherit">
<path d="m426.58 437.79v-405.63h-134.98v-32.16h188.41v437.79z" fill="#006cb5" stroke-width=".75"/>
<path d="m426.58 437.79v-405.63h-134.98v-32.16h188.41v437.79z" fill-opacity="0" stroke-opacity="0"/>
<path d="m53.422 42.21v405.63h134.98v32.16h-188.41v-437.79z" fill="#006cb5" stroke-width=".75"/>
<path d="m53.422 42.21v405.63h134.98v32.16h-188.41v-437.79z" fill-opacity="0" stroke-opacity="0"/>
<path d="m359.42 118.74 20.505 8.16 17.318 10.988 13.665 13.74 9.5475 16.41 0.945 2.55 0.8625 2.565 0.78 2.58 0.69 2.6025 0.6 2.6175 0.5025 2.6325 0.3975 2.64 0.285 2.64 0.18 2.655 0.06 2.6475-25.8 9.2925-25.785 9.285-25.762 9.2925-25.74 9.3075-25.732 9.3075-25.718 9.3225-25.702 9.3375-25.702 9.3525-25.695 9.375-25.695 9.3975-0.405 0.405 1.965 3.135 2.22 2.895 2.4525 2.67 2.67 2.445 2.8725 2.22 3.06 2.0025 3.2175 1.7925 3.375 1.5825 3.5025 1.38 3.615 1.1775 9.5175 2.3175 9.645 1.17 9.675 0.09 9.615-0.96 9.4725-1.9575 9.2175-2.9175 8.8875-3.8175 8.4525-4.68 7.9275-5.49 7.3125-6.2625 2.5425-2.49 2.4975-2.625 2.4375-2.7825 2.385-2.9325 2.3175-3.09 2.265-3.2475 2.1975-3.405 2.1375-3.5625 2.0625-3.7275 1.995-3.9 112.15-32.962-5.4975 14.265-7.6275 14.258-9.645 14.092-11.565 13.808-13.38 13.372-15.09 12.81-16.702 12.105-18.21 11.265-19.612 10.282-20.918 9.1725-29.925 10.282-29.505 7.035-28.635 3.8475-27.292 0.735-25.492-2.3025-23.228-5.2725-20.505-8.1675-17.318-10.988-13.665-13.732-9.5475-16.418-4.71-18.308 0.1275-19.208 4.68-19.748 8.9625-19.912 12.96-19.71 16.68-19.125 20.115-18.172 23.28-16.852 26.16-15.165 28.77-13.095 29.918-10.29 29.512-7.0275 28.635-3.8475 27.292-0.735 25.492 2.3025zm-113.1 50.108-12.405 2.715-11.918 4.0125-11.28 5.2575-10.5 6.45-9.5625 7.59-8.4975 8.6775-7.2675 9.705-5.895 10.688-4.38 11.61-2.715 12.488 14.902-5.31 14.865-5.3025 14.835-5.3175 14.812-5.325 14.805-5.325 14.805-5.3475 14.82-5.355 14.835-5.3775 14.865-5.3925 14.902-5.415-4.605-6.885-5.19-5.745-5.7075-4.68-6.1575-3.675-6.5325-2.73-6.84-1.875-7.0725-1.065-7.2375-0.3375-7.335 0.3375z" fill="#ee741d" stroke-width=".75"/>
<path d="m359.42 118.74 20.505 8.16 17.318 10.988 13.665 13.74 9.5475 16.41 0.945 2.55 0.8625 2.565 0.78 2.58 0.69 2.6025 0.6 2.6175 0.5025 2.6325 0.3975 2.64 0.285 2.64 0.18 2.655 0.06 2.6475-25.8 9.2925-25.785 9.285-25.762 9.2925-25.74 9.3075-25.732 9.3075-25.718 9.3225-25.702 9.3375-25.702 9.3525-25.695 9.375-25.695 9.3975-0.405 0.405 1.965 3.135 2.22 2.895 2.4525 2.67 2.67 2.445 2.8725 2.22 3.06 2.0025 3.2175 1.7925 3.375 1.5825 3.5025 1.38 3.615 1.1775 9.5175 2.3175 9.645 1.17 9.675 0.09 9.615-0.96 9.4725-1.9575 9.2175-2.9175 8.8875-3.8175 8.4525-4.68 7.9275-5.49 7.3125-6.2625 2.5425-2.49 2.4975-2.625 2.4375-2.7825 2.385-2.9325 2.3175-3.09 2.265-3.2475 2.1975-3.405 2.1375-3.5625 2.0625-3.7275 1.995-3.9 112.15-32.962-5.4975 14.265-7.6275 14.258-9.645 14.092-11.565 13.808-13.38 13.372-15.09 12.81-16.702 12.105-18.21 11.265-19.612 10.282-20.918 9.1725-29.925 10.282-29.505 7.035-28.635 3.8475-27.292 0.735-25.492-2.3025-23.228-5.2725-20.505-8.1675-17.318-10.988-13.665-13.732-9.5475-16.418-4.71-18.308 0.1275-19.208 4.68-19.748 8.9625-19.912 12.96-19.71 16.68-19.125 20.115-18.172 23.28-16.852 26.16-15.165 28.77-13.095 29.918-10.29 29.512-7.0275 28.635-3.8475 27.292-0.735 25.492 2.3025zm-113.1 50.108-12.405 2.715-11.918 4.0125-11.28 5.2575-10.5 6.45-9.5625 7.59-8.4975 8.6775-7.2675 9.705-5.895 10.688-4.38 11.61-2.715 12.488 14.902-5.31 14.865-5.3025 14.835-5.3175 14.812-5.325 14.805-5.325 14.805-5.3475 14.82-5.355 14.835-5.3775 14.865-5.3925 14.902-5.415-4.605-6.885-5.19-5.745-5.7075-4.68-6.1575-3.675-6.5325-2.73-6.84-1.875-7.0725-1.065-7.2375-0.3375-7.335 0.3375z" fill-opacity="0" stroke-opacity="0"/>
</g>
</g>
</svg>
